<svg class="hidden"><defs><symbol id="wype" viewBox="0 0 171 48"><path d="M0 .945h10.873l5.912 19.713L22.358.945h10.125l5.573 19.713L43.968.945h10.805l-11.757 32.54h-9.31l-6.32-19.78-6.252 19.78h-9.31L0 .945zM64.111 48c-1.63 0-3.194-.225-4.689-.675v-8.236c1.677.27 3.104.405 4.282.405 1.63 0 3.069-.338 4.315-1.013 1.246-.675 2.118-1.755 2.616-3.24l.408-1.216L57.248.945h10.805l8.359 23.224L84.022.945h10.874L80.489 36.793c-1.812 4.366-4.089 7.325-6.83 8.878C70.92 47.224 67.736 48 64.111 48zM118.45.068c2.945 0 5.561.72 7.85 2.16 2.287 1.44 4.065 3.454 5.334 6.042 1.268 2.588 1.902 5.57 1.902 8.945 0 3.376-.645 6.357-1.936 8.945s-3.104 4.602-5.437 6.043c-2.333 1.44-4.995 2.16-7.985 2.16-2.31 0-4.406-.518-6.286-1.553s-3.273-2.34-4.179-3.915v18.092h-10.33V.945h10.33v4.658c.906-1.62 2.333-2.948 4.281-3.983 1.948-1.035 4.1-1.552 6.456-1.552zm-3.262 25.721c2.265 0 4.123-.799 5.573-2.397 1.45-1.597 2.174-3.656 2.174-6.177 0-2.52-.725-4.568-2.174-6.143-1.45-1.576-3.308-2.363-5.573-2.363-2.356 0-4.258.787-5.708 2.363-1.45 1.575-2.175 3.623-2.175 6.143 0 2.566.736 4.636 2.209 6.211 1.472 1.575 3.364 2.363 5.674 2.363zM171 15.527c0 1.35-.09 2.858-.272 4.524h-24.192c.09 2.115.815 3.758 2.174 4.928 1.36 1.17 3.194 1.755 5.505 1.755 3.216 0 5.255-1.012 6.116-3.038h10.193c-.317 2.116-1.223 3.995-2.718 5.637-1.495 1.643-3.42 2.915-5.776 3.815-2.356.9-4.961 1.35-7.815 1.35-5.573 0-9.967-1.53-13.184-4.59-3.216-3.061-4.825-7.292-4.825-12.693 0-3.51.725-6.56 2.175-9.147 1.45-2.588 3.511-4.58 6.184-5.975C147.238.698 150.341 0 153.875 0c3.353 0 6.331.653 8.936 1.958 2.605 1.305 4.621 3.139 6.048 5.502 1.427 2.363 2.141 5.052 2.141 8.067zm-10.261-1.89c-.046-2.16-.657-3.825-1.835-4.996-1.178-1.17-2.877-1.755-5.097-1.755-2.22 0-3.975.619-5.267 1.857-1.29 1.237-1.959 2.869-2.004 4.894h14.203z"/></symbol><symbol id="present" viewBox="0 0 26 26"><path d="M17.041 5.812c.615-.689 1.026-1.51 1.146-2.348.146-1.02-.145-1.978-.797-2.63C16.852.296 16.102 0 15.278 0c-1.09 0-2.216.501-3.089 1.375-.091.091-.162.191-.244.287-.039-.042-.068-.087-.109-.128-.845-.845-1.934-1.33-2.99-1.33-.8 0-1.529.288-2.053.812-1.204 1.205-1.044 3.257.309 4.796H0V24h24V5.812h-6.959zM22 13h-9V7.812h9V13zM13.603 2.789c.494-.494 1.12-.789 1.675-.789.205 0 .492.043.698.248.277.277.264.704.231.934-.07.495-.352 1.02-.772 1.439-.494.495-1.12.79-1.674.79-.197 0-.47-.043-.673-.23a3.421 3.421 0 0 0-.047-1.596c.127-.271.308-.542.562-.796zM8.207 2.43c.187-.187.45-.226.639-.226.521 0 1.109.278 1.575.744.215.215.377.444.497.673a3.467 3.467 0 0 0-.016 1.562c-.183.16-.424.204-.601.204-.521 0-1.109-.278-1.575-.744-.806-.804-.919-1.812-.519-2.213zM11 7.812V13H2V7.812h9zM2 15h9v7H2v-7zm11 7v-7h9v7h-9z"/></symbol><symbol id="lock" viewBox="0 0 26 26"><path d="M10 0C6.058 0 2.857 2.987 2.857 6.667v6.666H2c-1.093 0-2 .847-2 1.867v6.933C0 23.153.907 24 2 24h16c1.093 0 2-.846 2-1.867V15.2c0-1.02-.907-1.867-2-1.867H4.571V6.667C4.571 3.846 6.978 1.6 10 1.6c3.022 0 5.429 2.246 5.429 5.067-.007.422.404.808.857.808.453 0 .863-.386.857-.808C17.143 2.987 13.943 0 10 0zM2 14.933h16c.173 0 .286.105.286.267v6.933c0 .162-.113.267-.286.267H2c-.173 0-.286-.105-.286-.267V15.2c0-.162.113-.267.286-.267zM10 16c-1.568 0-2.857 1.203-2.857 2.667 0 1.463 1.29 2.666 2.857 2.666 1.568 0 2.857-1.203 2.857-2.666C12.857 17.203 11.567 16 10 16zm0 1.6c.641 0 1.143.468 1.143 1.067 0 .598-.502 1.066-1.143 1.066s-1.143-.468-1.143-1.066c0-.599.502-1.067 1.143-1.067z"/></symbol><symbol id="download" viewBox="0 0 68 68"><path d="M11.893 64H9.25C4.15 64 0 59.813 0 54.667V9.333C0 4.187 4.15 0 9.25 0h18.5C32.85 0 37 4.187 37 9.333v13.334c0 .736-.592 1.333-1.321 1.333-.73 0-1.322-.597-1.322-1.333V9.333c0-3.674-2.965-6.666-6.607-6.666H9.25c-3.642 0-6.607 2.992-6.607 6.666v45.334c0 3.674 2.965 6.666 6.607 6.666h2.643c.73 0 1.321.598 1.321 1.334 0 .736-.592 1.333-1.321 1.333z"/><path d="M35.679 13.333H1.32C.592 13.333 0 12.736 0 12s.592-1.333 1.321-1.333H35.68c.729 0 1.321.597 1.321 1.333s-.592 1.333-1.321 1.333zM23.786 50.667H1.32c-.728 0-1.32-.598-1.32-1.334C0 48.597.592 48 1.321 48h22.465c.73 0 1.321.597 1.321 1.333s-.592 1.334-1.321 1.334zM22.464 8h-7.928c-.73 0-1.322-.597-1.322-1.333s.592-1.334 1.322-1.334h7.928c.73 0 1.322.598 1.322 1.334 0 .736-.592 1.333-1.322 1.333zm5.339 0a1.34 1.34 0 0 1-1.335-1.333c0-.736.579-1.334 1.308-1.334h.027c.73 0 1.321.598 1.321 1.334 0 .736-.592 1.333-1.321 1.333z"/><path d="M45.061 64H19.807c-2.215 0-4.018-1.829-4.018-4.076 0-2.998 2.205-5.574 5.127-5.998l10.815-1.723L13.497 33.7c-1.996-2.025-1.996-5.318 0-7.34a5.075 5.075 0 0 1 7.25-.017l4.746 4.816a5.176 5.176 0 0 1 1.286-2.193 5.071 5.071 0 0 1 6.736-.473 5.194 5.194 0 0 1 1.299-2.245 5.078 5.078 0 0 1 6.739-.47c.225-.826.658-1.6 1.296-2.247a5.075 5.075 0 0 1 7.25-.017l10.07 11.23A15.028 15.028 0 0 1 64 44.792c0 3.987-1.53 7.737-4.31 10.555l-4.213 4.275C52.695 62.446 48.996 64 45.061 64zM17.128 27.54a2.42 2.42 0 0 0-1.724.723c-.967.981-.967 2.55-.017 3.514l20.096 20.39c.357.362.482.897.327 1.381a1.346 1.346 0 0 1-1.066.921l-13.432 2.142c-1.628.239-2.844 1.66-2.844 3.313 0 .75.6 1.358 1.339 1.358H45.06c3.22 0 6.246-1.271 8.523-3.581l4.213-4.275a12.219 12.219 0 0 0 3.525-8.634c0-3.047-1.115-5.965-3.131-8.218L48.163 25.39c-.908-.914-2.454-.916-3.404.046a2.484 2.484 0 0 0-.729 1.764c0 .66.254 1.282.715 1.75l.115.117a1.37 1.37 0 0 1 0 1.92 1.326 1.326 0 0 1-1.867.028s0-.003-.002-.003h-.003l-.003-.002-.002-.003-.003-.003-.003-.002-2.793-2.835a2.42 2.42 0 0 0-3.447 0c-.967.981-.967 2.55-.016 3.514l2.793 2.834c.25.253.38.601.38.949s-.13.696-.39.962c-.523.53-1.372.53-1.894 0l-5.472-5.552a2.42 2.42 0 0 0-3.447 0 2.506 2.506 0 0 0-.016 3.514l5.472 5.552a1.375 1.375 0 0 1 0 1.921c-.522.53-1.372.53-1.894 0l-13.4-13.596a2.414 2.414 0 0 0-1.725-.726z"/></symbol><symbol id="glasses" viewBox="0 0 72 68"><path d="M15.459 29.065c-3.644 0-6.92 1.438-9.312 3.775a12.587 12.587 0 0 0-3.865 9.096c0 3.523 1.472 6.76 3.865 9.06a13.257 13.257 0 0 0 9.312 3.775c3.644 0 6.92-1.438 9.312-3.775a12.681 12.681 0 0 0 3.828-9.06c0-3.56-1.473-6.795-3.828-9.096a13.257 13.257 0 0 0-9.312-3.775zM1.877 34.71L10.16 3.43c.515-2.013 1.987-3.091 3.607-3.38.625-.107 1.325-.035 1.95.145.663.144 1.252.503 1.767.934 1.252 1.115 1.95 3.02 1.178 5.537-.184.611-.847.935-1.435.755-.59-.18-.957-.79-.773-1.402.478-1.546.147-2.66-.516-3.236-.22-.215-.515-.36-.846-.467a2.133 2.133 0 0 0-.957-.036c-.773.108-1.51.683-1.804 1.726L5.337 30.503c2.724-2.3 6.257-3.667 10.122-3.667 4.27 0 8.134 1.69 10.931 4.422 2.54 2.481 4.196 5.825 4.454 9.564h9.312c.258-3.74 1.914-7.083 4.454-9.564 2.797-2.732 6.662-4.422 10.931-4.422 3.865 0 7.398 1.366 10.122 3.667L58.67 4.007c-.295-1.043-1.03-1.618-1.804-1.726a2.133 2.133 0 0 0-.957.036c-.331.108-.625.252-.846.467-.663.576-.994 1.69-.516 3.236.184.611-.184 1.222-.773 1.402-.588.18-1.25-.144-1.435-.755-.773-2.517-.074-4.422 1.178-5.537.515-.43 1.104-.79 1.767-.97.625-.144 1.325-.216 1.95-.108 1.62.288 3.092 1.366 3.644 3.38l8.245 31.278A14.609 14.609 0 0 1 71 41.936c0 4.17-1.73 7.91-4.527 10.642C63.675 55.31 59.81 57 55.54 57s-8.134-1.69-10.931-4.422c-2.54-2.48-4.196-5.824-4.454-9.527h-9.312c-.258 3.703-1.914 7.046-4.454 9.527C23.593 55.31 19.728 57 15.46 57c-4.27 0-8.134-1.69-10.932-4.422C1.73 49.846 0 46.107 0 41.936c0-2.624.663-5.07 1.877-7.226zm63.418 7.226c0 .611-.515 1.115-1.178 1.115-.626 0-1.14-.504-1.14-1.115 0-2.013-.81-3.847-2.172-5.141-1.325-1.33-3.203-2.121-5.264-2.121a1.141 1.141 0 0 1-1.14-1.15c0-.612.515-1.115 1.14-1.115a9.826 9.826 0 0 1 6.883 2.804c1.767 1.726 2.871 4.099 2.871 6.723zm-9.754-12.87a13.32 13.32 0 0 0-9.312 3.774 12.702 12.702 0 0 0-3.828 9.096c0 3.523 1.473 6.76 3.828 9.06a13.323 13.323 0 0 0 9.312 3.775c3.644 0 6.92-1.438 9.312-3.775a12.566 12.566 0 0 0 3.865-9.06c0-3.56-1.472-6.795-3.865-9.096a13.257 13.257 0 0 0-9.312-3.775zm-30.365 12.87c0 .611-.516 1.115-1.141 1.115-.626 0-1.141-.504-1.141-1.115a7.199 7.199 0 0 0-2.172-5.141c-1.362-1.33-3.202-2.121-5.263-2.121a1.141 1.141 0 0 1-1.141-1.15c0-.612.515-1.115 1.14-1.115a9.826 9.826 0 0 1 6.884 2.804c1.73 1.726 2.834 4.099 2.834 6.723z"/></symbol><symbol id="family" viewBox="0 0 31 26"><path d="M15.016 4c-2.206 0-4 1.794-4 4s1.794 4 4 4 4-1.794 4-4-1.794-4-4-4m0 10c-3.31 0-6-2.69-6-6 0-3.309 2.69-6 6-6 3.309 0 6 2.691 6 6 0 3.31-2.691 6-6 6"/><path d="M23.016 12a5.982 5.982 0 0 1-3.987-1.542l1.334-1.49A3.985 3.985 0 0 0 23.016 10c2.206 0 4-1.794 4-4s-1.794-4-4-4a4.008 4.008 0 0 0-3.741 2.631l-1.878-.688C18.262 1.584 20.52 0 23.016 0c3.309 0 6 2.691 6 6 0 3.31-2.691 6-6 6m-16 0c-3.31 0-6-2.69-6-6 0-3.309 2.69-6 6-6 2.496 0 4.754 1.584 5.619 3.943l-1.878.688a4.008 4.008 0 0 0-3.741-2.63c-2.206 0-4 1.793-4 4 0 2.205 1.794 4 4 4 .967 0 1.91-.368 2.653-1.033l1.334 1.49A5.982 5.982 0 0 1 7.016 12m14 12h-12a1 1 0 0 1-1-1v-6a6.953 6.953 0 0 1 3.362-5.973l1.042 1.707A4.966 4.966 0 0 0 10.016 17v5h10v-5a4.966 4.966 0 0 0-2.404-4.266l1.042-1.707A6.953 6.953 0 0 1 22.016 17v6a1 1 0 0 1-1 1"/><path d="M9.016 22h-8a1 1 0 0 1-1-1v-6a6.953 6.953 0 0 1 3.362-5.973l1.042 1.707A4.966 4.966 0 0 0 2.016 15v5h7v2zm20 0h-8v-2h7v-5a4.966 4.966 0 0 0-2.404-4.266l1.042-1.707A6.953 6.953 0 0 1 30.016 15v6a1 1 0 0 1-1 1"/></symbol><symbol id="balloon" viewBox="0 0 26 26"><g transform="translate(3 1)" fill-rule="nonzero"><path d="M20 9.517C20 4.262 15.522 0 10 0S0 4.262 0 9.517c0 .331.043.62.043.828 0 .083.044.165.087.207l5.348 6.745c-.435.206-.782.662-.782 1.158 0 .662.521 1.2 1.174 1.283v3.02c0 .704.565 1.242 1.304 1.242h5.696c.739 0 1.304-.538 1.304-1.241v-3.021c.652-.083 1.174-.62 1.174-1.283a1.27 1.27 0 0 0-.783-1.158l5.348-6.745a.308.308 0 0 0 .087-.207v-.828zm-7.957 7.655l1.566-6.496c.782-.62 1.826-.952 2.826-.952.87 0 1.739.248 2.478.704l-5.348 6.744h-1.522zm-3.173 0l-1.61-6.579c.783-.58 1.74-.869 2.74-.869 1 0 1.957.331 2.74.87l-1.61 6.578H8.87zm-2.435 0l-5.348-6.744a4.648 4.648 0 0 1 2.478-.704c1.044 0 2.044.331 2.826.952l1.566 6.496H6.435zM10 .828c5.043 0 9.13 3.89 9.13 8.69v.04a5.554 5.554 0 0 0-2.695-.703 5.494 5.494 0 0 0-3.218 1.035A5.494 5.494 0 0 0 10 8.855 5.494 5.494 0 0 0 6.783 9.89a5.494 5.494 0 0 0-3.218-1.035c-.956.042-1.913.248-2.695.704v-.042c0-4.8 4.087-8.69 9.13-8.69zm3.26 21.93c0 .249-.173.414-.434.414H7.174c-.261 0-.435-.165-.435-.413v-3.021h6.565v3.02h-.043zm.697-2.99H6.043c-.26 0-.478-.402-.478-.884S5.783 18 6.043 18h7.914c.26 0 .478.402.478.884s-.218.883-.478.883z" id="Shape"/></g></symbol><symbol id="profile" viewBox="0 0 68 68"><path d="M3.524 66h41.952C47.419 66 49 64.454 49 62.555V3.445C49 1.544 47.42 0 45.476 0H3.524C1.581 0 0 1.546 0 3.444v59.112C0 64.456 1.581 66 3.524 66zM2.431 3.444c0-.59.49-1.069 1.094-1.069h41.952c.603 0 1.093.48 1.093 1.07v59.11c0 .59-.49 1.07-1.093 1.07H3.524c-.603 0-1.094-.48-1.094-1.07V3.446h.001z"/><path d="M18.23 31h13.54c.68 0 1.23-.477 1.23-1.067a.972.972 0 0 0-.019-.19C32.865 26.007 29.326 23 24.992 23 20.585 23 17 26.11 17 29.933c0 .59.55 1.067 1.23 1.067zm6.761-5.865c2.628 0 4.834 1.597 5.394 3.731H19.598c.56-2.134 2.766-3.73 5.393-3.73zM25 21c2.205 0 4-1.795 4-4 0-2.206-1.795-4-4-4s-4 1.794-4 4c0 2.205 1.795 4 4 4zm0-5.58c.871 0 1.58.708 1.58 1.58 0 .871-.709 1.58-1.58 1.58-.871 0-1.58-.709-1.58-1.58 0-.872.709-1.58 1.58-1.58z"/><path d="M24.5 37C33.047 37 40 30.496 40 22.5 40 14.505 33.047 8 24.5 8S9 14.504 9 22.5 15.953 37 24.5 37zm0-26.69c7.185 0 13.03 5.47 13.03 12.19 0 6.722-5.846 12.19-13.03 12.19-7.184 0-13.03-5.47-13.03-12.19s5.845-12.19 13.03-12.19zM8.247 46h32.506C41.44 46 42 45.553 42 45c0-.553-.559-1-1.247-1H8.247C7.56 44 7 44.447 7 45c0 .553.559 1 1.247 1zm0 6h32.506C41.44 52 42 51.553 42 51c0-.553-.559-1-1.247-1H8.247C7.56 50 7 50.447 7 51c0 .553.559 1 1.247 1zm-.033 6h24.572c.67 0 1.214-.447 1.214-1 0-.553-.544-1-1.214-1H8.214C7.544 56 7 56.447 7 57c0 .553.544 1 1.214 1z"/></symbol><symbol id="icon-prev" viewBox="0 0 32 32"><path class="path1" d="M14.796 27.666L2.663 15.294l.004 1.34 11.92-12.309-1.379-1.336L.637 15.97l12.788 13.04 1.371-1.344z"/><path class="path2" d="M3.359 16.866h28.16v-1.92H3.359v1.92z"/></symbol><symbol id="icon-next" viewBox="0 0 32 32"><path class="path1" d="M17.36 4.334l12.133 12.372-.004-1.34-11.92 12.309 1.379 1.336L31.519 16.03 18.731 2.99 17.36 4.334z"/><path class="path2" d="M28.797 15.134H.637v1.92h28.16v-1.92z"/></symbol><symbol id="icon-arrow" viewBox="0 0 28 32"><path class="path1" d="M25.84 17.363L13.468 29.496l1.34-.004-12.309-11.92-1.336 1.379 12.981 12.571 13.04-12.788-1.344-1.371z"/><path class="path2" d="M15.04 28.8V.64h-1.92V28.8h1.92z"/></symbol><symbol id="icon-exit" viewBox="0 0 34 32"><path class="path1" d="M15.003 16L1.175 2.172 3.061.286l13.828 13.828L30.717.286l1.886 1.886L18.775 16l13.828 13.828-1.886 1.886-13.828-13.828L3.061 31.714l-1.886-1.886L15.003 16z"/></symbol><symbol id="icon-email" viewBox="0 0 30 30"><path d="M2.537 6l11.274 10.521a1.746 1.746 0 0 0 2.378 0L27.463 6H2.537zM1 7.3v15.286l7.906-7.906L1 7.3zm28 0l-7.906 7.38L29 22.586V7.3zm-18.633 8.745L2.414 24h25.172l-7.955-7.955-2.076 1.937a3.74 3.74 0 0 1-2.557 1.004 3.735 3.735 0 0 1-2.555-1.004l-2.076-1.937z"/></symbol><symbol viewBox="0 0 50 50" id="icon-validation"><path d="M3 10c-1.652 0-3 1.348-3 3v20c0 1.652 1.348 3 3 3h25.188c.94 5.113 5.43 9 10.812 9 6.063 0 11-4.938 11-11 0-3.41-1.555-6.45-4-8.469V13c0-1.652-1.348-3-3-3zm7 10a3 3 0 1 1-.002 6.002A3 3 0 0 1 10 20zm13 0a3 3 0 1 1-.002 6.002A3 3 0 0 1 23 20zm13 0a3 3 0 0 1 3 3c-.254 0-.5.016-.75.031-.125.008-.25.02-.375.032a10.928 10.928 0 0 0-4.438 1.469A2.955 2.955 0 0 1 33 23a3 3 0 0 1 3-3zm3 5c4.98 0 9 4.02 9 9s-4.02 9-9 9-9-4.02-9-9 4.02-9 9-9zm4.875 5a1.008 1.008 0 0 0-.594.281L38 35.563l-2.281-2.282a1.014 1.014 0 0 0-1.438 0 1.014 1.014 0 0 0 0 1.438l3 3a.999.999 0 0 0 1.438 0l6-6a.996.996 0 0 0 .215-1.172.996.996 0 0 0-1.059-.547z"/></symbol><symbol id="icon-password" viewBox="0 0 24 24"><path d="M12 1C8.676 1 6 3.676 6 7v1c-1.1 0-2 .9-2 2v10c0 1.1.9 2 2 2h12c1.1 0 2-.9 2-2V10c0-1.1-.9-2-2-2V7c0-3.324-2.676-6-6-6zm0 2c2.276 0 4 1.724 4 4v1H8V7c0-2.276 1.724-4 4-4zm0 10c1.1 0 2 .9 2 2s-.9 2-2 2-2-.9-2-2 .9-2 2-2z"/></symbol><symbol id="check" viewBox="0 0 350 350"><g stroke="none" stroke-width="1" fill="none" fill-rule="nonzero"><circle fill="#2E84EF" cx="175" cy="175" r="175"/><g transform="translate(53 69)" fill="#FFF"><path d="M195.105 23.473c3.191-5.332 10.097-7.065 15.426-3.873 5.328 3.193 7.06 10.103 3.87 15.435l-91.868 153.494c-4.182 6.988-14.17 7.352-18.849.687l-55.64-79.252c-3.57-5.085-2.344-12.103 2.738-15.675 5.082-3.572 12.096-2.346 15.666 2.74l45.686 65.074 82.971-138.63z" id="Path"/></g></g></symbol><symbol id="mail" viewBox="0 0 350 350"><circle fill="#2E84EF" fill-rule="nonzero" cx="175" cy="175" r="175"/><g transform="translate(53 69)" fill="#FFF" fill-rule="nonzero"><path d="M210.369.888a4.18 4.18 0 0 0-4.573-.38L2.19 110.784a4.169 4.169 0 0 0-2.17 4.076 4.178 4.178 0 0 0 2.866 3.612l57.877 18.887-5.6 57.293a4.165 4.165 0 0 0 2.501 4.258 3.96 3.96 0 0 0 1.674.365 4.184 4.184 0 0 0 3.148-1.425l36.502-41.238 54.961 54.178A4.22 4.22 0 0 0 156.9 212a4.54 4.54 0 0 0 1.143-.166 4.186 4.186 0 0 0 2.932-3.015l50.902-203.59c.397-1.623-.183-3.33-1.508-4.34zM69.28 136.582l82.765-66.92-56.403 78.087-30.869 34.843 4.507-46.01z" id="Shape"/></g></symbol><symbol id="password-hidden" viewBox="0 0 50 50"><path d="M5.906 4.969c-.043.008-.086.02-.125.031A.994.994 0 0 0 5 5.703c-.105.367.004.758.281 1.016l38 38c.399.398 1.04.398 1.438 0a1.014 1.014 0 0 0 0-1.438l-8.469-8.468c6.574-3.547 11.215-8.825 11.5-9.157.32-.375.32-.937 0-1.312C47.316 23.84 37.008 12 25 12c-3.309 0-6.465.906-9.344 2.219L6.72 5.28a1.004 1.004 0 0 0-.813-.312zM25 14c.39 0 .77.035 1.156.063C31.676 14.648 36 19.328 36 25a10.96 10.96 0 0 1-2.531 7.031L28.437 27c.348-.59.563-1.266.563-2 0-2.21-1.79-4-4-4-.734 0-1.41.215-2 .563l-5.031-5.032A10.961 10.961 0 0 1 25 14zm-13 2.156c-5.652 3.469-9.488 7.883-9.75 8.188-.32.375-.32.937 0 1.312C2.684 26.16 12.992 38 25 38c.402 0 .793-.027 1.188-.063 2.16-.14 4.269-.613 6.25-1.343l-2.032-2.032A10.88 10.88 0 0 1 25 36c-.39 0-.77-.035-1.156-.063C18.324 35.352 14 30.672 14 25c0-1.973.527-3.805 1.438-5.406zm9.031 9a3.96 3.96 0 0 0 3.813 3.813z"/></symbol><symbol id="password-visible" viewBox="0 0 50 50"><path d="M18.938 12.844C8.921 15.547 1.613 23.922 1.25 24.344c-.32.375-.32.937 0 1.312C1.684 26.16 11.988 38 25 38s23.316-11.84 23.75-12.344c.32-.375.32-.937 0-1.312-.363-.422-7.672-8.793-17.688-11.5C34.028 14.813 36 18.172 36 22c-.004 6.074-4.926 11-11 11s-10.996-4.926-11-11c0-3.828 1.973-7.188 4.938-9.156zM25 17a5 5 0 1 0 0 10 5 5 0 0 0 0-10z"/></symbol></defs></svg>