	<svg class="hidden">
		<defs>
			<symbol id="wype" viewBox="0 0 171 48">
				<path  d="M0,0.945147679 L10.8730102,0.945147679 L16.7852095,20.6582278 L22.3576272,0.945147679 L32.483118,0.945147679 L38.0555357,20.6582278 L43.967735,0.945147679 L54.7727889,0.945147679 L43.0163466,33.4852321 L33.7063316,33.4852321 L27.3863945,13.7046414 L21.1344136,33.4852321 L11.8243986,33.4852321 L0,0.945147679 Z M64.1114284,48 C62.4804687,48 60.9174891,47.7749671 59.4224427,47.3248945 L59.4224427,39.0886076 C61.0987068,39.3586511 62.5257752,39.4936709 63.7036905,39.4936709 C65.3346502,39.4936709 66.7730444,39.1561215 68.0189164,38.4810127 C69.2647884,37.8059038 70.1368857,36.7257458 70.6352345,35.2405063 L71.0429724,34.0253165 L57.2478407,0.945147679 L68.0528946,0.945147679 L76.4115212,24.1687764 L84.0226283,0.945147679 L94.8956385,0.945147679 L80.4889,36.7932489 C78.6767226,41.1589529 76.4002088,44.1181357 73.6592905,45.6708861 C70.9183721,47.2236365 67.7357832,48 64.1114284,48 Z M118.44914,0.0675105485 C121.393928,0.0675105485 124.01022,0.787615865 126.298094,2.2278481 C128.585968,3.66808034 130.364141,5.68212489 131.632665,8.27004219 C132.901189,10.8579595 133.535442,13.8396456 133.535442,17.2151899 C133.535442,20.5907342 132.889863,23.5724203 131.598687,26.1603376 C130.30751,28.7482549 128.49536,30.7622994 126.162181,32.2025316 C123.829003,33.6427639 121.167407,34.3628692 118.177315,34.3628692 C115.866788,34.3628692 113.77149,33.8452935 111.891356,32.8101266 C110.011221,31.7749597 108.618131,30.4697688 107.712042,28.8945148 L107.712042,46.9873418 L97.3826826,46.9873418 L97.3826826,0.945147679 L107.712042,0.945147679 L107.712042,5.60337553 C108.618131,3.98311426 110.045199,2.65542008 111.99329,1.62025316 C113.941381,0.585086245 116.093309,0.0675105485 118.44914,0.0675105485 Z M115.187237,25.7890295 C117.452459,25.7890295 119.309913,24.9901627 120.759655,23.3924051 C122.209396,21.7946474 122.934257,19.7355963 122.934257,17.2151899 C122.934257,14.6947835 122.209396,12.646984 120.759655,11.07173 C119.309913,9.49647595 117.452459,8.70886076 115.187237,8.70886076 C112.831406,8.70886076 110.928648,9.49647595 109.478906,11.07173 C108.029164,12.646984 107.304304,14.6947835 107.304304,17.2151899 C107.304304,19.7806035 108.04049,21.8509063 109.512885,23.4261603 C110.985279,25.0014143 112.876711,25.7890295 115.187237,25.7890295 Z M171,15.5274262 C171,16.8776439 170.909392,18.3853644 170.728175,20.0506329 L146.535727,20.0506329 C146.626336,22.165974 147.351196,23.8087143 148.710329,24.978903 C150.069462,26.1490916 151.904264,26.7341772 154.21479,26.7341772 C157.431405,26.7341772 159.470074,25.7215291 160.330859,23.6962025 L170.524306,23.6962025 C170.207175,25.8115436 169.3011,27.6905684 167.806053,29.3333333 C166.311007,30.9760982 164.385597,32.2475342 162.029767,33.1476793 C159.673936,34.0478245 157.06897,34.4978903 154.21479,34.4978903 C148.642345,34.4978903 144.247881,32.9676665 141.031266,29.907173 C137.814651,26.8466795 136.206367,22.6160608 136.206367,17.2151899 C136.206367,13.7046238 136.931227,10.6554278 138.380969,8.06751055 C139.830711,5.47959325 141.892032,3.48805198 144.564994,2.092827 C147.237956,0.697602025 150.341263,0 153.875009,0 C157.227537,0 160.206259,0.652595443 162.811264,1.95780591 C165.416269,3.26301637 167.432286,5.0970346 168.859376,7.45991561 C170.286466,9.82279662 171,12.5119399 171,15.5274262 Z M160.738597,13.6371308 C160.693292,11.4767824 160.081691,9.8115389 158.903776,8.64135021 C157.725861,7.47116152 156.02697,6.88607595 153.807053,6.88607595 C151.587135,6.88607595 149.831615,7.50491646 148.540438,8.74261603 C147.249262,9.98031561 146.581031,11.6118042 146.535727,13.6371308 L160.738597,13.6371308 Z" ></path>
			</symbol>
			<symbol id="present" viewBox="0 0 26 26">
				<path d="M17.041,5.812 C17.656,5.123 18.067,4.302 18.187,3.464 C18.333,2.444 18.042,1.486 17.39,0.834 C16.852,0.296 16.102,0 15.278,0 C14.188,0 13.062,0.501 12.189,1.375 C12.098,1.466 12.027,1.566 11.945,1.662 C11.906,1.62 11.877,1.575 11.836,1.534 C10.991,0.689 9.902,0.204 8.846,0.204 C8.046,0.204 7.317,0.492 6.793,1.016 C5.589,2.221 5.749,4.273 7.102,5.812 L0,5.812 L0,24 L24,24 L24,5.812 L17.041,5.812 Z M22,13 L13,13 L13,7.812 L22,7.812 L22,13 Z M13.603,2.789 C14.097,2.295 14.723,2 15.278,2 C15.483,2 15.77,2.043 15.976,2.248 C16.253,2.525 16.24,2.952 16.207,3.182 C16.137,3.677 15.855,4.202 15.435,4.621 C14.941,5.116 14.315,5.411 13.761,5.411 C13.564,5.411 13.291,5.368 13.088,5.181 C13.197,4.674 13.185,4.131 13.041,3.585 C13.168,3.314 13.349,3.043 13.603,2.789 Z M8.207,2.43 C8.394,2.243 8.657,2.204 8.846,2.204 C9.367,2.204 9.955,2.482 10.421,2.948 C10.636,3.163 10.798,3.392 10.918,3.621 C10.794,4.157 10.788,4.687 10.902,5.183 C10.719,5.343 10.478,5.387 10.301,5.387 C10.301,5.387 10.301,5.387 10.301,5.387 C9.78,5.387 9.192,5.109 8.726,4.643 C7.92,3.839 7.807,2.831 8.207,2.43 Z M11,7.812 L11,13 L2,13 L2,7.812 L11,7.812 Z M2,15 L11,15 L11,22 L2,22 L2,15 Z M13,22 L13,15 L22,15 L22,22 L13,22 Z" ></path>
			</symbol>

			<symbol id="lock" viewBox="0 0 26 26">
				<path d="M10,0 C6.05768343,0 2.85714286,2.98717067 2.85714286,6.66666667 L2.85714286,13.3333333 L2,13.3333333 C0.906826571,13.3333333 0,14.1797067 0,15.2 L0,22.1333333 C0,23.1536267 0.906826571,24 2,24 L18,24 C19.0931734,24 20,23.1536267 20,22.1333333 L20,15.2 C20,14.1797067 19.0931734,13.3333333 18,13.3333333 L4.57142857,13.3333333 L4.57142857,6.66666667 C4.57142857,3.845896 6.97774514,1.6 10,1.6 C13.0222549,1.6 15.4285714,3.845896 15.4285714,6.66666667 C15.4221686,7.08931733 15.8328297,7.475 16.2857143,7.475 C16.7385989,7.475 17.1492614,7.08931733 17.1428571,6.66666667 C17.1428571,2.98717067 13.9423166,0 10,0 Z M2,14.9333333 L18,14.9333333 C18.1731114,14.9333333 18.2857143,15.0384267 18.2857143,15.2 L18.2857143,22.1333333 C18.2857143,22.2949067 18.1731114,22.4 18,22.4 L2,22.4 C1.82688857,22.4 1.71428571,22.2949067 1.71428571,22.1333333 L1.71428571,15.2 C1.71428571,15.0384267 1.82688857,14.9333333 2,14.9333333 Z M10,16 C8.432196,16 7.14285714,17.2033867 7.14285714,18.6666667 C7.14285714,20.1299467 8.432196,21.3333333 10,21.3333333 C11.567804,21.3333333 12.8571429,20.1299467 12.8571429,18.6666667 C12.8571429,17.2033867 11.567804,16 10,16 Z M10,17.6 C10.6413351,17.6 11.1428571,18.06808 11.1428571,18.6666667 C11.1428571,19.2652533 10.6413351,19.7333333 10,19.7333333 C9.35866486,19.7333333 8.85714286,19.2652533 8.85714286,18.6666667 C8.85714286,18.06808 9.35866486,17.6 10,17.6 Z"></path>
			</symbol>

			<symbol id="download" viewBox="0 0 68 68">

				<path d="M11.8928571,64 L9.25,64 C4.14928571,64 0,59.8133333 0,54.6666667 L0,9.33333333 C0,4.18666667 4.14928571,0 9.25,0 L27.75,0 C32.8507143,0 37,4.18666667 37,9.33333333 L37,22.6666667 C37,23.4026667 36.408,24 35.6785714,24 C34.9491429,24 34.3571429,23.4026667 34.3571429,22.6666667 L34.3571429,9.33333333 C34.3571429,5.65866667 31.3918571,2.66666667 27.75,2.66666667 L9.25,2.66666667 C5.60814286,2.66666667 2.64285714,5.65866667 2.64285714,9.33333333 L2.64285714,54.6666667 C2.64285714,58.3413333 5.60814286,61.3333333 9.25,61.3333333 L11.8928571,61.3333333 C12.6222857,61.3333333 13.2142857,61.9306667 13.2142857,62.6666667 C13.2142857,63.4026667 12.6222857,64 11.8928571,64 Z"></path>
				<path d="M35.6785714,13.3333333 L1.32142857,13.3333333 C0.592,13.3333333 0,12.736 0,12 C0,11.264 0.592,10.6666667 1.32142857,10.6666667 L35.6785714,10.6666667 C36.408,10.6666667 37,11.264 37,12 C37,12.736 36.408,13.3333333 35.6785714,13.3333333 Z"></path>
				<path d="M23.7857143,50.6666667 L1.32142857,50.6666667 C0.592,50.6666667 0,50.0693333 0,49.3333333 C0,48.5973333 0.592,48 1.32142857,48 L23.7857143,48 C24.5151429,48 25.1071429,48.5973333 25.1071429,49.3333333 C25.1071429,50.0693333 24.5151429,50.6666667 23.7857143,50.6666667 Z"></path>
				<path d="M22.4642857,8 L14.5357143,8 C13.8062857,8 13.2142857,7.40266667 13.2142857,6.66666667 C13.2142857,5.93066667 13.8062857,5.33333333 14.5357143,5.33333333 L22.4642857,5.33333333 C23.1937143,5.33333333 23.7857143,5.93066667 23.7857143,6.66666667 C23.7857143,7.40266667 23.1937143,8 22.4642857,8 Z"></path>
				<path d="M27.8028571,8 C27.0734286,8 26.4682143,7.40266667 26.4682143,6.66666667 C26.4682143,5.93066667 27.047,5.33333333 27.7764286,5.33333333 L27.8028571,5.33333333 C28.5322857,5.33333333 29.1242857,5.93066667 29.1242857,6.66666667 C29.1242857,7.40266667 28.5322857,8 27.8028571,8 Z" ></path>

				<path d="M45.0612035,64 L19.8067964,64 C17.5917794,64 15.7892324,62.1710331 15.7892324,59.9235508 C15.7892324,56.9260018 17.9935358,54.3496859 20.915644,53.9257352 L31.7309262,52.202756 L13.4965426,33.701112 C11.5011525,31.6764755 11.5011525,28.3827046 13.4965426,26.3607858 C15.5080029,24.3198436 18.7541946,24.3225612 20.7469063,26.34448 L25.4929886,31.1601253 C25.7260073,30.3584236 26.1545474,29.6002041 26.778609,28.9669956 C28.6213317,27.091829 31.5112994,26.9396416 33.5147246,28.4941275 C33.745065,27.6706848 34.1789619,26.8961594 34.813737,26.2493628 C36.659138,24.3769138 39.5491057,24.2247264 41.5525309,25.7792124 C41.7775145,24.953052 42.2114114,24.1785267 42.8488649,23.53173 C44.8603253,21.4907878 48.106517,21.4935054 50.0992287,23.5154242 L60.1699224,34.744683 C62.639385,37.5003626 64,41.0686145 64,44.7917714 C64,48.7785387 62.4706473,52.528872 59.6904931,55.3470572 L55.4774076,59.6218936 C52.694575,62.445514 48.9957378,64 45.0612035,64 Z M17.1284204,27.5402384 C16.5043588,27.5402384 15.8802972,27.7821077 15.4035463,28.2631287 C14.4366525,29.2441942 14.4366525,30.8122683 15.387476,31.7770279 L35.483331,52.1674268 C35.839555,52.528872 35.9654386,53.0642456 35.8100928,53.5479843 C35.6520687,54.0344405 35.2422771,54.3904504 34.7440992,54.4692618 L21.3120437,56.6107564 C19.6835911,56.8499081 18.4676084,58.2712301 18.4676084,59.9235508 C18.4676084,60.6736175 19.0675646,61.2823672 19.8067964,61.2823672 L45.0612035,61.2823672 C48.2806114,61.2823672 51.3071762,60.0105151 53.5837958,57.7005272 L57.7968812,53.4256908 C60.0708224,51.1184206 61.321624,48.0529308 61.321624,44.7917714 C61.321624,41.745305 60.2074196,38.8265674 58.1906025,36.5736498 L48.1627628,25.3905909 C47.2547934,24.4774663 45.7093705,24.4747486 44.758547,25.4367906 C44.2817961,25.9205293 44.0300287,26.5401495 44.0300287,27.2005343 C44.0300287,27.8609191 44.2844744,28.483257 44.7451551,28.9506898 L44.8603253,29.067548 C45.3826086,29.5974864 45.3826086,30.458976 44.8603253,30.9889144 C44.3460771,31.5106999 43.5184589,31.5188528 42.9934972,31.0160908 C42.9934972,31.0160908 42.9934972,31.0133731 42.9908188,31.0133731 C42.9908188,31.0133731 42.9881405,31.0133731 42.9881405,31.0133731 C42.9881405,31.0133731 42.9881405,31.0133731 42.9881405,31.0133731 C42.9881405,31.0133731 42.9881405,31.0133731 42.9881405,31.0133731 C42.9881405,31.0133731 42.9881405,31.0133731 42.9881405,31.0133731 C42.9881405,31.0133731 42.9881405,31.0133731 42.9854621,31.0106555 C42.9854621,31.0106555 42.9854621,31.0106555 42.9854621,31.0106555 C42.9854621,31.0106555 42.9854621,31.0106555 42.9854621,31.0106555 C42.9854621,31.0106555 42.9854621,31.0106555 42.9827837,31.0079379 C42.9827837,31.0079379 42.9801053,31.0052202 42.9801053,31.0052202 C42.9801053,31.0052202 42.9801053,31.0052202 42.977427,31.0025026 L40.1838808,28.1680116 C39.2357357,27.2059696 37.684956,27.2059696 36.7368109,28.1680116 C35.7699172,29.149077 35.7699172,30.7171512 36.7207407,31.6819108 L39.5142868,34.5164018 C39.7633758,34.7691417 39.8946162,35.1169987 39.8946162,35.4648556 C39.8946162,35.8127126 39.7633758,36.1605696 39.5035733,36.4268977 C38.98129,36.9568361 38.1322448,36.9568361 37.6099615,36.4268977 L32.1380394,30.8747739 C31.1898943,29.9127318 29.6391146,29.9127318 28.6909695,30.8747739 C27.7240758,31.8558393 27.7240758,33.4239134 28.6748992,34.3886731 L34.1468214,39.9407969 C34.4066238,40.2044072 34.5378643,40.5522642 34.5378643,40.9001212 C34.5378643,41.2479782 34.4066238,41.5958352 34.1468214,41.8621632 C33.624538,42.3921016 32.7754929,42.3921016 32.2532095,41.8621632 L18.8532945,28.2658464 C18.3765436,27.7821077 17.752482,27.5402384 17.1284204,27.5402384 Z" ></path>
			</symbol>

			<symbol id="glasses" viewBox="0 0 72 68">
				<path d="M15.4587869,29.0652463 C11.81493,29.0652463 8.53913945,30.5033289 6.14670814,32.840213 C3.75427683,35.1411451 2.2820114,38.3768309 2.2820114,41.9360852 C2.2820114,45.4593875 3.75427683,48.6950732 6.14670814,50.9960053 C8.53913945,53.3328895 11.81493,54.770972 15.4587869,54.770972 C19.1026439,54.770972 22.3784344,53.3328895 24.7708657,50.9960053 C27.1264904,48.6950732 28.5987558,45.4593875 28.5987558,41.9360852 C28.5987558,38.3768309 27.1264904,35.1411451 24.7708657,32.840213 C22.3784344,30.5033289 19.1026439,29.0652463 15.4587869,29.0652463 Z M1.87713841,34.7097204 L10.1586314,3.43142477 C10.6739243,1.41810919 12.1461897,0.33954727 13.7656817,0.051930759 C14.3913945,-0.0559254328 15.0907206,0.0159786951 15.7164334,0.195739015 C16.3789528,0.33954727 16.967859,0.699067909 17.4831519,1.13049268 C18.7345775,2.24500666 19.4339036,4.15046605 18.6609642,6.66711052 C18.4769311,7.27829561 17.8144116,7.60186418 17.2255054,7.42210386 C16.6365993,7.24234354 16.2685329,6.63115846 16.4525661,6.01997337 C16.9310524,4.47403462 16.5997926,3.35952064 15.9372732,2.78428762 C15.7164334,2.56857523 15.4219803,2.42476698 15.0907206,2.31691079 C14.7962675,2.24500666 14.4650078,2.20905459 14.1337481,2.28095872 C13.3608087,2.38881491 12.624676,2.96404794 12.3302229,4.00665779 L5.33696216,30.5033289 C8.06065319,28.2023968 11.5940902,26.8362184 15.4587869,26.8362184 C19.7283567,26.8362184 23.5930534,28.5259654 26.3903577,31.2583222 C28.9300156,33.7390146 30.5863142,37.0825566 30.8439606,40.8215712 L40.1560394,40.8215712 C40.4136858,37.0825566 42.0699844,33.7390146 44.6096423,31.2583222 C47.4069466,28.5259654 51.2716433,26.8362184 55.5412131,26.8362184 C59.4059098,26.8362184 62.9393468,28.2023968 65.6630378,30.5033289 L58.6697771,4.00665779 C58.375324,2.96404794 57.6391913,2.38881491 56.8662519,2.28095872 C56.5349922,2.20905459 56.2037325,2.24500666 55.9092794,2.31691079 C55.5780197,2.42476698 55.2835666,2.56857523 55.0627268,2.78428762 C54.4002074,3.35952064 54.0689476,4.47403462 54.5474339,6.01997337 C54.7314671,6.63115846 54.3634007,7.24234354 53.7744946,7.42210386 C53.1855884,7.60186418 52.5230689,7.27829561 52.3390358,6.66711052 C51.5660964,4.15046605 52.2654225,2.24500666 53.5168481,1.13049268 C54.032141,0.699067909 54.6210472,0.33954727 55.2835666,0.159786951 C55.9092794,0.0159786951 56.6086055,-0.0559254328 57.2343183,0.051930759 C58.8538103,0.33954727 60.3260757,1.41810919 60.8781752,3.43142477 L69.1228616,34.7097204 C70.3374806,36.8668442 71,39.3115846 71,41.9360852 C71,46.1065246 69.2700881,49.8455393 66.4727838,52.5778961 C63.6754795,55.310253 59.8107828,57 55.5412131,57 C51.2716433,57 47.4069466,55.310253 44.6096423,52.5778961 C42.0699844,50.0972037 40.4136858,46.7536618 40.1560394,43.0505992 L30.8439606,43.0505992 C30.5863142,46.7536618 28.9300156,50.0972037 26.3903577,52.5778961 C23.5930534,55.310253 19.7283567,57 15.4587869,57 C11.1892172,57 7.32452048,55.310253 4.52721617,52.5778961 C1.72991187,49.8455393 0,46.1065246 0,41.9360852 C0,39.3115846 0.66251944,36.8668442 1.87713841,34.7097204 Z M65.2949715,41.9360852 C65.2949715,42.5472703 64.7796786,43.0505992 64.1171591,43.0505992 C63.4914463,43.0505992 62.9761534,42.5472703 62.9761534,41.9360852 C62.9761534,39.9227696 62.1664075,38.0892144 60.8045619,36.7949401 C59.4795231,35.4647137 57.6023847,34.6737683 55.5412131,34.6737683 C54.9155003,34.6737683 54.4002074,34.1704394 54.4002074,33.5233023 C54.4002074,32.9121172 54.9155003,32.4087883 55.5412131,32.4087883 C58.2280975,32.4087883 60.6573354,33.4873502 62.4240539,35.2130493 C64.1907724,36.9387483 65.2949715,39.3115846 65.2949715,41.9360852 Z M55.5412131,29.0652463 C51.9341628,29.0652463 48.6215656,30.5033289 46.2291343,32.840213 C43.8735096,35.1411451 42.4012442,38.3768309 42.4012442,41.9360852 C42.4012442,45.4593875 43.8735096,48.6950732 46.2291343,50.9960053 C48.6215656,53.3328895 51.9341628,54.770972 55.5412131,54.770972 C59.18507,54.770972 62.4608605,53.3328895 64.8532919,50.9960053 C67.2457232,48.6950732 68.7179886,45.4593875 68.7179886,41.9360852 C68.7179886,38.3768309 67.2457232,35.1411451 64.8532919,32.840213 C62.4608605,30.5033289 59.18507,29.0652463 55.5412131,29.0652463 Z M25.1757387,41.9360852 C25.1757387,42.5472703 24.6604458,43.0505992 24.034733,43.0505992 C23.4090202,43.0505992 22.8937273,42.5472703 22.8937273,41.9360852 C22.8937273,39.9227696 22.0471747,38.0892144 20.7221358,36.7949401 C19.3602903,35.4647137 17.5199585,34.6737683 15.4587869,34.6737683 C14.8330741,34.6737683 14.3177812,34.1704394 14.3177812,33.5233023 C14.3177812,32.9121172 14.8330741,32.4087883 15.4587869,32.4087883 C18.1456713,32.4087883 20.5749093,33.4873502 22.3416278,35.2130493 C24.0715397,36.9387483 25.1757387,39.3115846 25.1757387,41.9360852 Z" ></path>
			</symbol>

			<symbol id="family" viewBox="0 0 31 26">
				<path d="M15.0159,4.0003 C12.8099,4.0003 11.0159,5.7943 11.0159,8.0003 C11.0159,10.2063 12.8099,12.0003 15.0159,12.0003 C17.2219,12.0003 19.0159,10.2063 19.0159,8.0003 C19.0159,5.7943 17.2219,4.0003 15.0159,4.0003 M15.0159,14.0003 C11.7069,14.0003 9.0159,11.3093 9.0159,8.0003 C9.0159,4.6913 11.7069,2.0003 15.0159,2.0003 C18.3249,2.0003 21.0159,4.6913 21.0159,8.0003 C21.0159,11.3093 18.3249,14.0003 15.0159,14.0003"></path>
				<path d="M23.0159,12.0003 C21.5559,12.0003 20.1399,11.4523 19.0289,10.4583 L20.3629,8.9683 C21.1059,9.6333 22.0489,10.0003 23.0159,10.0003 C25.2219,10.0003 27.0159,8.2063 27.0159,6.0003 C27.0159,3.7943 25.2219,2.0003 23.0159,2.0003 C21.3549,2.0003 19.8519,3.0583 19.2749,4.6313 L17.3969,3.9433 C18.2619,1.5843 20.5199,0.0003 23.0159,0.0003 C26.3249,0.0003 29.0159,2.6913 29.0159,6.0003 C29.0159,9.3093 26.3249,12.0003 23.0159,12.0003"></path>
				<path d="M7.0159,12.0003 C3.7069,12.0003 1.0159,9.3093 1.0159,6.0003 C1.0159,2.6913 3.7069,0.0003 7.0159,0.0003 C9.5119,0.0003 11.7699,1.5843 12.6349,3.9433 L10.7569,4.6313 C10.1799,3.0583 8.6769,2.0003 7.0159,2.0003 C4.8099,2.0003 3.0159,3.7943 3.0159,6.0003 C3.0159,8.2063 4.8099,10.0003 7.0159,10.0003 C7.9829,10.0003 8.9259,9.6333 9.6689,8.9683 L11.0029,10.4583 C9.8919,11.4523 8.4759,12.0003 7.0159,12.0003"></path>
				<path d="M21.0159,24.0003 L9.0159,24.0003 C8.4639,24.0003 8.0159,23.5523 8.0159,23.0003 L8.0159,17.0003 C8.0159,14.5443 9.2729,12.3123 11.3779,11.0273 L12.4199,12.7343 C10.9139,13.6523 10.0159,15.2483 10.0159,17.0003 L10.0159,22.0003 L20.0159,22.0003 L20.0159,17.0003 C20.0159,15.2483 19.1179,13.6523 17.6119,12.7343 L18.6539,11.0273 C20.7589,12.3123 22.0159,14.5443 22.0159,17.0003 L22.0159,23.0003 C22.0159,23.5523 21.5679,24.0003 21.0159,24.0003"></path>
				<path d="M9.0159,22.0003 L1.0159,22.0003 C0.4639,22.0003 0.0159,21.5523 0.0159,21.0003 L0.0159,15.0003 C0.0159,12.5443 1.2729,10.3123 3.3779,9.0273 L4.4199,10.7343 C2.9139,11.6523 2.0159,13.2483 2.0159,15.0003 L2.0159,20.0003 L9.0159,20.0003 L9.0159,22.0003 Z"></path>
				<path d="M29.0159,22.0003 L21.0159,22.0003 L21.0159,20.0003 L28.0159,20.0003 L28.0159,15.0003 C28.0159,13.2483 27.1179,11.6523 25.6119,10.7343 L26.6539,9.0273 C28.7589,10.3123 30.0159,12.5443 30.0159,15.0003 L30.0159,21.0003 C30.0159,21.5523 29.5679,22.0003 29.0159,22.0003"></path>
			</symbol>

			<symbol id="balloon" viewBox="0 0 26 26" >
				<g transform="translate(3.000000, 1.000000)" fill-rule="nonzero" >
					<path  d="M20,9.51724138 C20,4.26206897 15.5217391,0 10,0 C4.47826087,0 0,4.26206897 0,9.51724138 C0,9.84827586 0.0434782609,10.137931 0.0434782609,10.3448276 C0.0434782609,10.4275862 0.0869565217,10.5103448 0.130434783,10.5517241 C0.130434783,10.5517241 0.130434783,10.5517241 0.130434783,10.5517241 L5.47826087,17.2965517 C5.04347826,17.5034483 4.69565217,17.9586207 4.69565217,18.4551724 C4.69565217,19.1172414 5.2173913,19.6551724 5.86956522,19.737931 L5.86956522,22.7586207 C5.86956522,23.462069 6.43478261,24 7.17391304,24 L12.8695652,24 C13.6086957,24 14.173913,23.462069 14.173913,22.7586207 L14.173913,19.737931 C14.826087,19.6551724 15.3478261,19.1172414 15.3478261,18.4551724 C15.3478261,17.9586207 15.0434783,17.5034483 14.5652174,17.2965517 L19.9130435,10.5517241 C19.9130435,10.5517241 19.9130435,10.5517241 19.9130435,10.5517241 C19.9565217,10.5103448 20,10.4275862 20,10.3448276 C20,10.137931 20,9.84827586 20,9.51724138 Z M12.0434783,17.1724138 L13.6086957,10.6758621 C14.3913043,10.0551724 15.4347826,9.72413793 16.4347826,9.72413793 C17.3043478,9.72413793 18.173913,9.97241379 18.9130435,10.4275862 L13.5652174,17.1724138 L12.0434783,17.1724138 Z M8.86956522,17.1724138 L7.26086957,10.5931034 C8.04347826,10.0137931 9,9.72413793 10,9.72413793 C11,9.72413793 11.9565217,10.0551724 12.7391304,10.5931034 L11.1304348,17.1724138 L8.86956522,17.1724138 Z M6.43478261,17.1724138 L1.08695652,10.4275862 C1.82608696,9.97241379 2.65217391,9.72413793 3.56521739,9.72413793 C4.60869565,9.72413793 5.60869565,10.0551724 6.39130435,10.6758621 L7.95652174,17.1724138 L6.43478261,17.1724138 Z M10,0.827586207 C15.0434783,0.827586207 19.1304348,4.71724138 19.1304348,9.51724138 C19.1304348,9.51724138 19.1304348,9.55862069 19.1304348,9.55862069 C18.3043478,9.10344828 17.3913043,8.85517241 16.4347826,8.85517241 C15.2608696,8.85517241 14.1304348,9.22758621 13.2173913,9.88965517 C12.3043478,9.22758621 11.173913,8.85517241 10,8.85517241 C8.82608696,8.85517241 7.69565217,9.22758621 6.7826087,9.88965517 C5.86956522,9.22758621 4.73913043,8.85517241 3.56521739,8.85517241 C2.60869565,8.89655172 1.65217391,9.10344828 0.869565217,9.55862069 C0.869565217,9.55862069 0.869565217,9.51724138 0.869565217,9.51724138 C0.869565217,4.71724138 4.95652174,0.827586207 10,0.827586207 Z M13.2608696,22.7586207 C13.2608696,23.0068966 13.0869565,23.1724138 12.826087,23.1724138 L7.17391304,23.1724138 C6.91304348,23.1724138 6.73913043,23.0068966 6.73913043,22.7586207 L6.73913043,19.737931 L13.3043478,19.737931 L13.3043478,22.7586207 L13.2608696,22.7586207 Z M13.9565217,19.7674877 L6.04347826,19.7674877 C5.7826087,19.7674877 5.56521739,19.3657859 5.56521739,18.8837438 C5.56521739,18.4017017 5.7826087,18 6.04347826,18 L13.9565217,18 C14.2173913,18 14.4347826,18.4017017 14.4347826,18.8837438 C14.4347826,19.3657859 14.2173913,19.7674877 13.9565217,19.7674877 Z" id="Shape"></path>
				</g>
			</symbol>

			<symbol id="profile" viewBox="0 0 68 68">
				<g>
					<path d="M3.52401422,66 L45.4759858,66 C47.4186493,66 49,64.4544364 49,62.5549451 L49,3.44426316 C49,1.54556361 47.4194594,0 45.4759858,0 L3.52401422,0 C1.58135075,0 0,1.54556361 0,3.44426316 L0,62.5557368 C0.000810118211,64.4552282 1.58135075,66 3.52401422,66 Z M2.43116475,3.44426316 C2.43116475,2.85438361 2.92128627,2.3753539 3.52482434,2.3753539 L45.4767959,2.3753539 C46.0795238,2.3753539 46.5704555,2.85438361 46.5704555,3.44426316 L46.5704555,62.5557368 C46.5704555,63.1456164 46.080334,63.6254379 45.4767959,63.6254379 L3.52401422,63.6254379 C2.92128627,63.6254379 2.43035463,63.1456164 2.43035463,62.5557368 L2.43035463,3.44426316 L2.43116475,3.44426316 Z"></path>
					<path d="M18.2295082,31 L31.7532681,31 C31.7581894,31 31.7647512,31 31.7696725,31 C32.4496335,31 33,30.5225898 33,29.9327641 C33,29.8680185 32.9934383,29.8046958 32.981135,29.7427962 C32.864664,26.0074707 29.3262421,23 24.9922084,23 C20.5851753,23 17.0000009,26.1099253 17.0000009,29.9327641 C16.9991807,30.5225898 17.5503674,31 18.2295082,31 Z M24.9913882,25.1351832 C27.6185475,25.1351832 29.8249348,26.7324795 30.3851439,28.8662398 L19.5976324,28.8662398 C20.1578415,26.7317681 22.3642288,25.1351832 24.9913882,25.1351832 Z"></path>
					<path d="M25,21 C27.2052833,21 29,19.2052833 29,16.9991934 C29,14.7939101 27.2052833,13 25,13 C22.7947167,13 21,14.7939101 21,16.9991934 C21,19.2052833 22.7947167,21 25,21 Z M25,15.4198427 C25.8711434,15.4198427 26.5801573,16.12805 26.5801573,16.9991934 C26.5801573,17.8711434 25.8711434,18.5801573 25,18.5801573 C24.1288566,18.5801573 23.4198427,17.8711434 23.4198427,16.9991934 C23.4198427,16.12805 24.1288566,15.4198427 25,15.4198427 Z"></path>
					<path d="M24.5,37 C33.0470676,37 40,30.4956439 40,22.5 C40,14.5051264 33.0470676,8 24.5,8 C15.9529324,8 9,14.5043561 9,22.5 C9,30.4956439 15.9529324,37 24.5,37 Z M24.5,10.3108797 C31.685136,10.3108797 37.5297493,15.7791915 37.5297493,22.5 C37.5297493,29.2215788 31.6843126,34.6891203 24.5,34.6891203 C17.3156874,34.6891203 11.4702507,29.2208085 11.4702507,22.5 C11.4702507,15.7791915 17.314864,10.3108797 24.5,10.3108797 Z"></path>
					<path d="M8.24709012,46 L40.7529099,46 C41.4413036,46 42,45.5526667 42,45 C42,44.4473333 41.4413036,44 40.7529099,44 L8.24709012,44 C7.55869638,44 7,44.4473333 7,45 C7,45.5526667 7.55869638,46 8.24709012,46 Z"></path>
					<path d="M8.24709012,52 L40.7529099,52 C41.4413036,52 42,51.5526667 42,51 C42,50.4473333 41.4413036,50 40.7529099,50 L8.24709012,50 C7.55869638,50 7,50.4473333 7,51 C7,51.5526667 7.55869638,52 8.24709012,52 Z"></path>
					<path d="M8.21413796,58 L32.785862,58 C33.4560662,58 34,57.5526667 34,57 C34,56.4473333 33.4560662,56 32.785862,56 L8.21413796,56 C7.54393381,56 7,56.4473333 7,57 C7,57.5526667 7.54393381,58 8.21413796,58 Z"></path>
				</g>
			</symbol>

			<symbol id="icon-prev" viewBox="0 0 32 32">
				<title>prev</title>
				<path class="path1" d="M14.796 27.666l-12.133-12.372 0.004 1.34 11.92-12.309-1.379-1.336-12.571 12.981 12.788 13.040 1.371-1.344z"></path>
				<path class="path2" d="M3.359 16.866h28.16v-1.92h-28.16v1.92z"></path>
			</symbol>
			<symbol id="icon-next" viewBox="0 0 32 32">
				<title>next</title>
				<path class="path1" d="M17.36 4.334l12.133 12.372-0.004-1.34-11.92 12.309 1.379 1.336 12.571-12.981-12.788-13.040-1.371 1.344z"></path>
				<path class="path2" d="M28.797 15.134h-28.16v1.92h28.16v-1.92z"></path>
			</symbol>
			<symbol id="icon-arrow" viewBox="0 0 28 32">
				<title>arrow</title>
				<path class="path1" d="M25.84 17.363l-12.372 12.133 1.34-0.004-12.309-11.92-1.336 1.379 12.981 12.571 13.040-12.788-1.344-1.371z"></path>
				<path class="path2" d="M15.040 28.8v-28.16h-1.92v28.16h1.92z"></path>
			</symbol>

			<symbol id="icon-exit" viewBox="0 0 34 32">
				<title>exit</title>
				<path class="path1" d="M15.003 16l-13.828-13.828 1.886-1.886 13.828 13.828 13.828-13.828 1.886 1.886-13.828 13.828 13.828 13.828-1.886 1.886-13.828-13.828-13.828 13.828-1.886-1.886 13.828-13.828z"></path>
			</symbol>

			<symbol id="icon-email" viewBox="0 0 30 30">
				<path d="M 2.5371094 6 L 13.810547 16.521484 C 14.477547 17.145484 15.523453 17.145484 16.189453 16.521484 L 27.462891 6 L 2.5371094 6 z M 1 7.3007812 L 1 22.585938 L 8.90625 14.679688 L 1 7.3007812 z M 29 7.3007812 L 21.09375 14.679688 L 29 22.585938 L 29 7.3007812 z M 10.367188 16.044922 L 2.4140625 24 L 27.585938 24 L 19.630859 16.044922 L 17.554688 17.982422 C 16.837688 18.651422 15.917047 18.986328 14.998047 18.986328 C 14.079047 18.986328 13.160359 18.651422 12.443359 17.982422 L 10.367188 16.044922 z"></path>
			</symbol>

			<symbol viewBox="0 0 50 50" id="icon-validation">
				<path style=" " d="M 3 10 C 1.347656 10 0 11.347656 0 13 L 0 33 C 0 34.652344 1.347656 36 3 36 L 28.1875 36 C 29.128906 41.113281 33.617188 45 39 45 C 45.0625 45 50 40.0625 50 34 C 50 30.589844 48.445313 27.550781 46 25.53125 L 46 13 C 46 11.347656 44.652344 10 43 10 Z M 10 20 C 11.65625 20 13 21.34375 13 23 C 13 24.65625 11.65625 26 10 26 C 8.34375 26 7 24.65625 7 23 C 7 21.34375 8.34375 20 10 20 Z M 23 20 C 24.65625 20 26 21.34375 26 23 C 26 24.65625 24.65625 26 23 26 C 21.34375 26 20 24.65625 20 23 C 20 21.34375 21.34375 20 23 20 Z M 36 20 C 37.65625 20 39 21.34375 39 23 C 38.746094 23 38.5 23.015625 38.25 23.03125 C 38.125 23.039063 38 23.050781 37.875 23.0625 C 37.644531 23.085938 37.414063 23.117188 37.1875 23.15625 C 35.839844 23.378906 34.574219 23.863281 33.4375 24.53125 C 33.167969 24.085938 33 23.5625 33 23 C 33 21.34375 34.34375 20 36 20 Z M 39 25 C 43.980469 25 48 29.019531 48 34 C 48 38.980469 43.980469 43 39 43 C 34.019531 43 30 38.980469 30 34 C 30 29.019531 34.019531 25 39 25 Z M 43.875 30 C 43.652344 30.023438 43.441406 30.125 43.28125 30.28125 L 38 35.5625 L 35.71875 33.28125 C 35.320313 32.882813 34.679688 32.882813 34.28125 33.28125 C 33.882813 33.679688 33.882813 34.320313 34.28125 34.71875 L 37.28125 37.71875 C 37.46875 37.914063 37.730469 38.023438 38 38.023438 C 38.269531 38.023438 38.53125 37.914063 38.71875 37.71875 L 44.71875 31.71875 C 45.042969 31.417969 45.128906 30.941406 44.933594 30.546875 C 44.742188 30.148438 44.308594 29.929688 43.875 30 Z "></path>

			</symbol>

			<symbol id="icon-password" viewBox="0 0 24 24">
				<path d="M 12 1 C 8.6761905 1 6 3.6761905 6 7 L 6 8 C 4.9 8 4 8.9 4 10 L 4 20 C 4 21.1 4.9 22 6 22 L 18 22 C 19.1 22 20 21.1 20 20 L 20 10 C 20 8.9 19.1 8 18 8 L 18 7 C 18 3.6761905 15.32381 1 12 1 z M 12 3 C 14.27619 3 16 4.7238095 16 7 L 16 8 L 8 8 L 8 7 C 8 4.7238095 9.7238095 3 12 3 z M 12 13 C 13.1 13 14 13.9 14 15 C 14 16.1 13.1 17 12 17 C 10.9 17 10 16.1 10 15 C 10 13.9 10.9 13 12 13 z"></path>
			</symbol>

			<symbol id="check" viewBox="0 0 350 350" >
				<g  stroke="none" stroke-width="1" fill="none" fill-rule="evenodd">
					<g transform="translate(99.000000, 87.000000)"></g>
					<circle fill="#2E84EF" fill-rule="nonzero" cx="175" cy="175" r="175"></circle>
					<g transform="translate(53.000000, 69.000000)" fill="#FFFFFF" fill-rule="nonzero">
						<path d="M195.105385,23.4726808 C198.29626,18.1412798 205.202355,16.4075824 210.530579,19.6003594 C215.858804,22.7931364 217.591469,29.7033479 214.400594,35.034749 L122.533439,188.528904 C118.350939,195.51714 108.363504,195.881086 103.684056,189.215784 L48.0444725,109.964005 C44.4744702,104.878974 45.7001882,97.8609572 50.7821904,94.2888268 C55.8641927,90.7166964 62.8780282,91.9431451 66.4480305,97.0281767 L112.134416,162.102844 L195.105385,23.4726808 Z" id="Path"></path>
					</g>
				</g>
			</symbol>

			<symbol id="mail" viewBox="0 0 350 350">
				<circle fill="#2E84EF" fill-rule="nonzero" cx="175" cy="175" r="175"></circle>
				<g  transform="translate(53.000000, 69.000000)" fill="#FFFFFF" fill-rule="nonzero">
					<path d="M210.368836,0.888405233 C209.059852,-0.138821164 207.270356,-0.287934885 205.795681,0.507336316 L2.19085916,110.78506 C0.716183369,111.580332 -0.145427696,113.187448 0.0202663314,114.860832 C0.169391168,116.534216 1.29610928,117.95908 2.88677195,118.47269 L60.763699,137.360401 L55.1632388,194.653127 C54.9809743,196.475624 55.991711,198.198713 57.6652197,198.911145 C58.1954405,199.159669 58.7753707,199.275647 59.3387283,199.275647 C60.5151569,199.275647 61.675013,198.7786 62.4869169,197.850783 L98.9893081,156.612614 L153.95002,210.790521 C154.745352,211.569226 155.805793,212 156.899372,212 C157.280469,212 157.661566,211.933727 158.04266,211.834316 C159.484199,211.43668 160.610918,210.276911 160.975447,208.818912 L211.876652,5.22926729 C212.274318,3.60558473 211.694388,1.8990624 210.368836,0.888405233 Z M69.2803699,136.581701 L152.044538,69.6628704 L95.6422908,147.748644 L64.7734924,182.591501 L69.2803699,136.581701 Z" id="Shape"></path>
				</g>
			</symbol>

		<symbol id="password-hidden" viewBox="0 0 50 50">
		<path style=" " d="M 5.90625 4.96875 C 5.863281 4.976563 5.820313 4.988281 5.78125 5 C 5.40625 5.066406 5.105469 5.339844 5 5.703125 C 4.894531 6.070313 5.003906 6.460938 5.28125 6.71875 L 43.28125 44.71875 C 43.679688 45.117188 44.320313 45.117188 44.71875 44.71875 C 45.117188 44.320313 45.117188 43.679688 44.71875 43.28125 L 36.25 34.8125 C 42.824219 31.265625 47.464844 25.988281 47.75 25.65625 C 48.070313 25.28125 48.070313 24.71875 47.75 24.34375 C 47.316406 23.839844 37.007813 12 25 12 C 21.691406 12 18.535156 12.90625 15.65625 14.21875 L 6.71875 5.28125 C 6.511719 5.058594 6.210938 4.945313 5.90625 4.96875 Z M 25 14 C 25.390625 14 25.769531 14.035156 26.15625 14.0625 C 31.675781 14.648438 36 19.328125 36 25 C 36 27.667969 35.054688 30.125 33.46875 32.03125 L 28.4375 27 C 28.785156 26.410156 29 25.734375 29 25 C 29 22.789063 27.210938 21 25 21 C 24.265625 21 23.589844 21.214844 23 21.5625 L 17.96875 16.53125 C 19.875 14.945313 22.332031 14 25 14 Z M 12 16.15625 C 6.347656 19.625 2.511719 24.039063 2.25 24.34375 C 1.929688 24.71875 1.929688 25.28125 2.25 25.65625 C 2.683594 26.160156 12.992188 38 25 38 C 25.402344 38 25.792969 37.972656 26.1875 37.9375 C 28.347656 37.796875 30.457031 37.324219 32.4375 36.59375 L 30.40625 34.5625 C 28.804688 35.472656 26.972656 36 25 36 C 24.609375 36 24.230469 35.964844 23.84375 35.9375 C 18.324219 35.351563 14 30.671875 14 25 C 14 23.027344 14.527344 21.195313 15.4375 19.59375 Z M 21.03125 25.15625 C 21.113281 27.234375 22.761719 28.886719 24.84375 28.96875 Z "></path>
		</symbol>

		<symbol id="password-visible" viewBox="0 0 50 50" >
		<path style=" " d="M 18.9375 12.84375 C 8.921875 15.546875 1.613281 23.921875 1.25 24.34375 C 0.929688 24.71875 0.929688 25.28125 1.25 25.65625 C 1.683594 26.160156 11.988281 38 25 38 C 38.011719 38 48.316406 26.160156 48.75 25.65625 C 49.070313 25.28125 49.070313 24.71875 48.75 24.34375 C 48.386719 23.921875 41.078125 15.550781 31.0625 12.84375 C 34.027344 14.8125 36 18.171875 36 22 C 35.996094 28.074219 31.074219 33 25 33 C 18.925781 33 14.003906 28.074219 14 22 C 14 18.171875 15.972656 14.8125 18.9375 12.84375 Z M 25 17 C 22.238281 17 20 19.238281 20 22 C 20 24.761719 22.238281 27 25 27 C 27.761719 27 30 24.761719 30 22 C 30 19.238281 27.761719 17 25 17 Z "></path>
		</symbol>
		</defs>
	</svg>